<svg xmlns="http://www.w3.org/2000/svg" xmlns:xlink="http://www.w3.org/1999/xlink" zoomAndPan="magnify" preserveAspectRatio="xMidYMid meet" version="1.0" viewBox="-37.5 -37.5 450 450"><defs><g/></defs><rect x="-37.5" width="450" fill="#ffffff" y="-37.499999" height="449.999989" fill-opacity="1"/><rect x="-37.5" width="450" fill="#ffffff" y="-37.499999" height="449.999989" fill-opacity="1"/><rect x="-37.5" width="450" fill="#ffffff" y="-37.499999" height="449.999989" fill-opacity="1"/><rect x="-37.5" width="450" fill="#ffffff" y="-37.499999" height="449.999989" fill-opacity="1"/><path fill="#31bcef" d="M 200.007812 74.4375 C 213.65625 77.238281 227.019531 68.59375 229.84375 55.136719 C 232.71875 41.652344 223.953125 28.457031 210.304688 25.65625 C 196.679688 22.855469 183.292969 31.5 180.46875 44.957031 C 177.617188 58.441406 186.382812 71.632812 200.007812 74.4375 " fill-opacity="1" fill-rule="nonzero"/><path fill="#31bcef" d="M 132.835938 83.824219 C 134.441406 84.445312 136.167969 84.347656 137.628906 83.703125 C 154.964844 77.957031 174.335938 78.003906 192.609375 85.210938 C 210.878906 92.394531 224.9375 105.566406 233.507812 121.492188 C 234.105469 122.976562 235.28125 124.21875 236.910156 124.84375 C 240.046875 126.089844 243.613281 124.578125 244.859375 121.492188 C 245.601562 119.671875 245.363281 117.730469 244.429688 116.175781 C 236.742188 101.757812 225.152344 89.304688 210.425781 80.542969 C 206.664062 81.1875 202.714844 81.164062 198.761719 80.351562 C 191.265625 78.792969 184.96875 74.722656 180.5625 69.191406 C 164.566406 66.125 148.378906 67.394531 133.53125 72.351562 C 131.710938 72.832031 130.15625 74.101562 129.414062 75.945312 C 128.167969 79.058594 129.699219 82.578125 132.835938 83.824219 " fill-opacity="1" fill-rule="nonzero"/><path fill="#31bcef" d="M 323.285156 148.574219 C 321.75 134.902344 309.324219 125.011719 295.457031 126.496094 C 285.015625 127.621094 276.78125 134.902344 273.976562 144.238281 C 273.976562 144.289062 273.976562 144.3125 273.953125 144.359375 C 273.761719 145.101562 273.546875 145.820312 273.425781 146.585938 C 273.402344 146.707031 273.378906 146.824219 273.355469 146.945312 C 273.234375 147.617188 273.140625 148.285156 273.066406 148.980469 C 273.042969 149.316406 273.042969 149.652344 273.019531 149.988281 C 272.996094 150.464844 272.949219 150.96875 272.972656 151.449219 C 272.972656 152.285156 273.019531 153.125 273.117188 153.984375 C 274.625 167.660156 287.078125 177.550781 300.941406 176.039062 C 314.78125 174.554688 324.792969 162.246094 323.285156 148.574219 " fill-opacity="1" fill-rule="nonzero"/><path fill="#31bcef" d="M 261.644531 151.519531 C 260.351562 170.914062 252.019531 188.179688 239.328125 201.160156 C 238.105469 202.191406 237.269531 203.675781 237.148438 205.398438 C 236.933594 208.726562 239.472656 211.601562 242.847656 211.816406 C 244.8125 211.9375 246.605469 211.144531 247.828125 209.78125 C 259.203125 198.238281 267.558594 183.75 271.488281 167.445312 C 269.140625 163.660156 267.558594 159.324219 267.035156 154.632812 C 266.171875 146.609375 268.496094 138.949219 272.996094 132.914062 C 270.722656 117.851562 264.664062 103.867188 255.753906 92.058594 C 254.726562 90.527344 253.050781 89.449219 251.039062 89.304688 C 247.660156 89.089844 244.738281 91.628906 244.523438 94.957031 C 244.402344 96.65625 245.027344 98.238281 246.105469 99.4375 C 256.976562 113.921875 262.9375 132.148438 261.644531 151.519531 " fill-opacity="1" fill-rule="nonzero"/><path fill="#31bcef" d="M 226.230469 245.246094 C 226.230469 245.246094 226.253906 245.246094 226.253906 245.246094 C 226.230469 245.246094 226.179688 245.246094 226.15625 245.246094 C 225.152344 245.390625 224.121094 245.582031 223.117188 245.867188 C 222.925781 245.890625 222.707031 245.964844 222.515625 246.011719 C 221.367188 246.347656 220.21875 246.707031 219.117188 247.234375 C 206.402344 252.859375 200.726562 267.613281 206.449219 280.160156 C 212.171875 292.730469 227.113281 298.3125 239.804688 292.660156 C 252.523438 287.007812 258.171875 272.257812 252.472656 259.734375 C 247.804688 249.460938 236.957031 243.855469 226.230469 245.246094 " fill-opacity="1" fill-rule="nonzero"/><path fill="#31bcef" d="M 267.058594 201.519531 C 265.382812 201.949219 264.039062 203.027344 263.25 204.394531 C 252.640625 219.097656 236.933594 230.304688 217.871094 235.09375 C 198.808594 239.859375 179.605469 237.390625 163.179688 229.464844 C 161.8125 228.625 160.113281 228.316406 158.4375 228.722656 C 155.15625 229.535156 153.167969 232.839844 154.007812 236.074219 C 154.484375 237.964844 155.828125 239.378906 157.503906 240.121094 C 172.300781 247.328125 189.089844 250.679688 206.234375 249.195312 C 209.035156 246.109375 212.53125 243.523438 216.601562 241.726562 C 223.785156 238.539062 231.570312 238.253906 238.5625 240.359375 C 252.714844 233.535156 264.542969 223.40625 273.308594 211.167969 C 274.480469 209.734375 274.984375 207.816406 274.503906 205.902344 C 273.667969 202.667969 270.339844 200.707031 267.058594 201.519531 " fill-opacity="1" fill-rule="nonzero"/><path fill="#31bcef" d="M 76.996094 223.597656 C 66.671875 232.867188 65.90625 248.621094 75.269531 258.800781 C 84.632812 269 100.582031 269.765625 110.902344 260.5 C 121.222656 251.257812 121.988281 235.5 112.628906 225.320312 C 103.265625 215.121094 87.316406 214.355469 76.996094 223.597656 " fill-opacity="1" fill-rule="nonzero"/><path fill="#31bcef" d="M 168.328125 252.835938 C 150.894531 247.425781 135.257812 236.121094 124.769531 219.695312 C 114.277344 203.292969 110.710938 184.46875 113.273438 166.605469 C 113.65625 165.050781 113.441406 163.371094 112.507812 161.910156 C 110.710938 159.085938 106.925781 158.25 104.078125 160.019531 C 102.402344 161.050781 101.445312 162.773438 101.253906 164.570312 C 98.808594 181.164062 100.941406 198.453125 108.148438 214.472656 C 111.453125 216.125 114.519531 218.402344 117.152344 221.25 C 122.0625 226.589844 124.71875 233.175781 125.175781 239.859375 C 136.261719 251.519531 150.03125 259.804688 164.902344 264.402344 C 166.648438 265.050781 168.660156 264.929688 170.363281 263.875 C 173.234375 262.105469 174.074219 258.34375 172.277344 255.519531 C 171.34375 254.082031 169.90625 253.171875 168.328125 252.835938 " fill-opacity="1" fill-rule="nonzero"/><path fill="#31bcef" d="M 100.820312 118.519531 C 107.742188 106.570312 103.550781 91.367188 91.457031 84.542969 C 79.367188 77.691406 63.945312 81.835938 57.023438 93.785156 C 50.101562 105.734375 54.316406 120.964844 66.410156 127.789062 C 78.503906 134.613281 93.902344 130.46875 100.820312 118.519531 " fill-opacity="1" fill-rule="nonzero"/><path fill="#31bcef" d="M 91.53125 134.46875 C 83.53125 148.597656 79.722656 164.28125 79.917969 179.824219 C 79.820312 181.667969 80.5625 183.535156 82.09375 184.804688 C 84.707031 186.960938 88.5625 186.601562 90.738281 184.015625 C 91.839844 182.722656 92.273438 181.070312 92.105469 179.464844 C 91.9375 161.433594 97.972656 143.234375 110.542969 128.316406 C 123.117188 113.398438 140.140625 104.226562 158.125 101.113281 C 159.730469 101.015625 161.308594 100.273438 162.410156 98.957031 C 164.566406 96.394531 164.230469 92.585938 161.621094 90.433594 C 160.113281 89.1875 158.171875 88.828125 156.378906 89.210938 C 139.351562 92.085938 123.089844 99.652344 109.753906 111.695312 C 109.128906 115.074219 107.933594 118.378906 106.136719 121.515625 C 102.664062 127.5 97.46875 131.90625 91.53125 134.46875 " fill-opacity="1" fill-rule="nonzero"/><g fill="#716658" fill-opacity="1"><g transform="translate(40.351281, 342.851886)"><g><path d="M 18.234375 -26.125 C 16.117188 -26.125 14.46875 -25.253906 13.28125 -23.515625 C 12.09375 -21.785156 11.5 -19.394531 11.5 -16.34375 C 11.5 -10 13.910156 -6.828125 18.734375 -6.828125 C 20.191406 -6.828125 21.601562 -7.03125 22.96875 -7.4375 C 24.34375 -7.84375 25.71875 -8.332031 27.09375 -8.90625 L 27.09375 -1.375 C 24.34375 -0.15625 21.234375 0.453125 17.765625 0.453125 C 12.785156 0.453125 8.96875 -0.988281 6.3125 -3.875 C 3.664062 -6.757812 2.34375 -10.929688 2.34375 -16.390625 C 2.34375 -19.796875 2.984375 -22.789062 4.265625 -25.375 C 5.554688 -27.96875 7.40625 -29.957031 9.8125 -31.34375 C 12.226562 -32.738281 15.066406 -33.4375 18.328125 -33.4375 C 21.890625 -33.4375 25.296875 -32.660156 28.546875 -31.109375 L 25.8125 -24.09375 C 24.59375 -24.664062 23.375 -25.144531 22.15625 -25.53125 C 20.9375 -25.925781 19.628906 -26.125 18.234375 -26.125 Z M 18.234375 -26.125 "/></g></g></g><g fill="#716658" fill-opacity="1"><g transform="translate(70.308529, 342.851886)"><g><path d="M 27.4375 -12.828125 C 27.4375 -8.648438 26.3125 -5.390625 24.0625 -3.046875 C 21.820312 -0.710938 18.675781 0.453125 14.625 0.453125 C 10.75 0.453125 7.664062 -0.738281 5.375 -3.125 C 3.082031 -5.519531 1.9375 -8.753906 1.9375 -12.828125 C 1.9375 -16.992188 3.0625 -20.226562 5.3125 -22.53125 C 7.5625 -24.84375 10.710938 -26 14.765625 -26 C 17.273438 -26 19.488281 -25.460938 21.40625 -24.390625 C 23.332031 -23.328125 24.816406 -21.796875 25.859375 -19.796875 C 26.910156 -17.804688 27.4375 -15.484375 27.4375 -12.828125 Z M 10.890625 -12.828125 C 10.890625 -10.628906 11.179688 -8.957031 11.765625 -7.8125 C 12.347656 -6.664062 13.332031 -6.09375 14.71875 -6.09375 C 16.082031 -6.09375 17.046875 -6.664062 17.609375 -7.8125 C 18.179688 -8.957031 18.46875 -10.628906 18.46875 -12.828125 C 18.46875 -15.003906 18.179688 -16.648438 17.609375 -17.765625 C 17.035156 -18.878906 16.054688 -19.4375 14.671875 -19.4375 C 13.316406 -19.4375 12.347656 -18.882812 11.765625 -17.78125 C 11.179688 -16.675781 10.890625 -15.023438 10.890625 -12.828125 Z M 10.890625 -12.828125 "/></g></g></g><g fill="#716658" fill-opacity="1"><g transform="translate(99.724788, 342.851886)"><g><path d="M 19.15625 0 L 19.15625 -13.9375 C 19.15625 -15.632812 18.910156 -16.914062 18.421875 -17.78125 C 17.941406 -18.644531 17.160156 -19.078125 16.078125 -19.078125 C 14.585938 -19.078125 13.507812 -18.484375 12.84375 -17.296875 C 12.1875 -16.109375 11.859375 -14.070312 11.859375 -11.1875 L 11.859375 0 L 3.046875 0 L 3.046875 -25.546875 L 9.6875 -25.546875 L 10.796875 -22.390625 L 11.3125 -22.390625 C 12.0625 -23.585938 13.101562 -24.488281 14.4375 -25.09375 C 15.769531 -25.695312 17.300781 -26 19.03125 -26 C 21.851562 -26 24.050781 -25.175781 25.625 -23.53125 C 27.195312 -21.894531 27.984375 -19.585938 27.984375 -16.609375 L 27.984375 0 Z M 19.15625 0 "/></g></g></g><g fill="#716658" fill-opacity="1"><g transform="translate(130.651306, 342.851886)"><g><path d="M 19.15625 0 L 19.15625 -13.9375 C 19.15625 -15.632812 18.910156 -16.914062 18.421875 -17.78125 C 17.941406 -18.644531 17.160156 -19.078125 16.078125 -19.078125 C 14.585938 -19.078125 13.507812 -18.484375 12.84375 -17.296875 C 12.1875 -16.109375 11.859375 -14.070312 11.859375 -11.1875 L 11.859375 0 L 3.046875 0 L 3.046875 -25.546875 L 9.6875 -25.546875 L 10.796875 -22.390625 L 11.3125 -22.390625 C 12.0625 -23.585938 13.101562 -24.488281 14.4375 -25.09375 C 15.769531 -25.695312 17.300781 -26 19.03125 -26 C 21.851562 -26 24.050781 -25.175781 25.625 -23.53125 C 27.195312 -21.894531 27.984375 -19.585938 27.984375 -16.609375 L 27.984375 0 Z M 19.15625 0 "/></g></g></g><g fill="#716658" fill-opacity="1"><g transform="translate(161.577825, 342.851886)"><g><path d="M 15.375 0.453125 C 11.125 0.453125 7.820312 -0.675781 5.46875 -2.9375 C 3.113281 -5.195312 1.9375 -8.421875 1.9375 -12.609375 C 1.9375 -16.921875 3.023438 -20.226562 5.203125 -22.53125 C 7.390625 -24.84375 10.503906 -26 14.546875 -26 C 18.390625 -26 21.359375 -24.992188 23.453125 -22.984375 C 25.554688 -20.972656 26.609375 -18.082031 26.609375 -14.3125 L 26.609375 -10.390625 L 10.84375 -10.390625 C 10.90625 -8.960938 11.425781 -7.84375 12.40625 -7.03125 C 13.394531 -6.21875 14.738281 -5.8125 16.4375 -5.8125 C 17.976562 -5.8125 19.398438 -5.957031 20.703125 -6.25 C 22.003906 -6.550781 23.414062 -7.050781 24.9375 -7.75 L 24.9375 -1.421875 C 23.550781 -0.710938 22.117188 -0.222656 20.640625 0.046875 C 19.171875 0.316406 17.414062 0.453125 15.375 0.453125 Z M 14.859375 -20 C 13.816406 -20 12.945312 -19.671875 12.25 -19.015625 C 11.550781 -18.359375 11.144531 -17.332031 11.03125 -15.9375 L 18.59375 -15.9375 C 18.5625 -17.164062 18.210938 -18.148438 17.546875 -18.890625 C 16.878906 -19.628906 15.984375 -20 14.859375 -20 Z M 14.859375 -20 "/></g></g></g><g fill="#716658" fill-opacity="1"><g transform="translate(190.114977, 342.851886)"><g><path d="M 14.671875 0.453125 C 10.492188 0.453125 7.328125 -0.671875 5.171875 -2.921875 C 3.015625 -5.179688 1.9375 -8.421875 1.9375 -12.640625 C 1.9375 -16.878906 3.097656 -20.164062 5.421875 -22.5 C 7.753906 -24.832031 11.070312 -26 15.375 -26 C 18.332031 -26 21.117188 -25.351562 23.734375 -24.0625 L 21.140625 -17.546875 C 20.078125 -18.003906 19.09375 -18.375 18.1875 -18.65625 C 17.289062 -18.9375 16.351562 -19.078125 15.375 -19.078125 C 13.945312 -19.078125 12.84375 -18.519531 12.0625 -17.40625 C 11.28125 -16.289062 10.890625 -14.71875 10.890625 -12.6875 C 10.890625 -8.601562 12.398438 -6.5625 15.421875 -6.5625 C 18.003906 -6.5625 20.484375 -7.3125 22.859375 -8.8125 L 22.859375 -1.796875 C 20.585938 -0.296875 17.859375 0.453125 14.671875 0.453125 Z M 14.671875 0.453125 "/></g></g></g><g fill="#716658" fill-opacity="1"><g transform="translate(215.000456, 342.851886)"><g><path d="M 15.5625 -6.515625 C 16.75 -6.515625 18.164062 -6.804688 19.8125 -7.390625 L 19.8125 -0.96875 C 18.625 -0.457031 17.492188 -0.09375 16.421875 0.125 C 15.347656 0.34375 14.085938 0.453125 12.640625 0.453125 C 9.679688 0.453125 7.546875 -0.269531 6.234375 -1.71875 C 4.929688 -3.175781 4.28125 -5.40625 4.28125 -8.40625 L 4.28125 -18.9375 L 1.1875 -18.9375 L 1.1875 -22.515625 L 5.125 -25.296875 L 7.390625 -30.65625 L 13.171875 -30.65625 L 13.171875 -25.546875 L 19.4375 -25.546875 L 19.4375 -18.9375 L 13.171875 -18.9375 L 13.171875 -9 C 13.171875 -7.34375 13.96875 -6.515625 15.5625 -6.515625 Z M 15.5625 -6.515625 "/></g></g></g><g fill="#716658" fill-opacity="1"><g transform="translate(236.23426, 342.851886)"><g/></g></g><g fill="#716658" fill-opacity="1"><g transform="translate(248.226176, 342.851886)"><g><path d="M 34.40625 -16.53125 C 34.40625 -10.976562 33.046875 -6.757812 30.328125 -3.875 C 27.609375 -0.988281 23.625 0.453125 18.375 0.453125 C 13.207031 0.453125 9.242188 -0.992188 6.484375 -3.890625 C 3.722656 -6.796875 2.34375 -11.023438 2.34375 -16.578125 C 2.34375 -22.054688 3.710938 -26.242188 6.453125 -29.140625 C 9.203125 -32.035156 13.191406 -33.484375 18.421875 -33.484375 C 23.660156 -33.484375 27.632812 -32.046875 30.34375 -29.171875 C 33.050781 -26.296875 34.40625 -22.082031 34.40625 -16.53125 Z M 11.71875 -16.53125 C 11.71875 -10.15625 13.9375 -6.96875 18.375 -6.96875 C 20.625 -6.96875 22.296875 -7.738281 23.390625 -9.28125 C 24.484375 -10.832031 25.03125 -13.25 25.03125 -16.53125 C 25.03125 -19.820312 24.472656 -22.25 23.359375 -23.8125 C 22.253906 -25.382812 20.609375 -26.171875 18.421875 -26.171875 C 13.953125 -26.171875 11.71875 -22.957031 11.71875 -16.53125 Z M 11.71875 -16.53125 "/></g></g></g><g fill="#716658" fill-opacity="1"><g transform="translate(285.013405, 342.851886)"><g><path d="M 18.46875 -26 C 19.226562 -26 19.957031 -25.9375 20.65625 -25.8125 L 21.140625 -25.71875 L 20.359375 -17.40625 C 19.640625 -17.582031 18.640625 -17.671875 17.359375 -17.671875 C 15.429688 -17.671875 14.03125 -17.226562 13.15625 -16.34375 C 12.289062 -15.46875 11.859375 -14.207031 11.859375 -12.5625 L 11.859375 0 L 3.046875 0 L 3.046875 -25.546875 L 9.609375 -25.546875 L 10.984375 -21.46875 L 11.40625 -21.46875 C 12.144531 -22.8125 13.171875 -23.898438 14.484375 -24.734375 C 15.796875 -25.578125 17.125 -26 18.46875 -26 Z M 18.46875 -26 "/></g></g></g><g fill="#716658" fill-opacity="1"><g transform="translate(306.675506, 342.851886)"><g><path d="M 27.140625 -25.546875 L 27.140625 -21.28125 L 23.65625 -20 C 24.132812 -19.125 24.375 -18.109375 24.375 -16.953125 C 24.375 -14.203125 23.40625 -12.066406 21.46875 -10.546875 C 19.539062 -9.035156 16.660156 -8.28125 12.828125 -8.28125 C 11.878906 -8.28125 11.128906 -8.335938 10.578125 -8.453125 C 10.367188 -8.066406 10.265625 -7.695312 10.265625 -7.34375 C 10.265625 -6.914062 10.613281 -6.582031 11.3125 -6.34375 C 12.019531 -6.113281 12.945312 -6 14.09375 -6 L 18.328125 -6 C 24.054688 -6 26.921875 -3.585938 26.921875 1.234375 C 26.921875 4.347656 25.59375 6.769531 22.9375 8.5 C 20.28125 10.226562 16.554688 11.09375 11.765625 11.09375 C 8.140625 11.09375 5.347656 10.488281 3.390625 9.28125 C 1.429688 8.070312 0.453125 6.332031 0.453125 4.0625 C 0.453125 1.007812 2.34375 -0.957031 6.125 -1.84375 C 5.34375 -2.175781 4.660156 -2.707031 4.078125 -3.4375 C 3.503906 -4.175781 3.21875 -4.910156 3.21875 -5.640625 C 3.21875 -6.429688 3.4375 -7.128906 3.875 -7.734375 C 4.3125 -8.347656 5.222656 -9.078125 6.609375 -9.921875 C 5.285156 -10.503906 4.242188 -11.421875 3.484375 -12.671875 C 2.722656 -13.921875 2.34375 -15.4375 2.34375 -17.21875 C 2.34375 -20 3.289062 -22.15625 5.1875 -23.6875 C 7.082031 -25.226562 9.785156 -26 13.296875 -26 C 13.765625 -26 14.566406 -25.941406 15.703125 -25.828125 C 16.847656 -25.722656 17.691406 -25.628906 18.234375 -25.546875 Z M 7.890625 3.171875 C 7.890625 3.898438 8.28125 4.484375 9.0625 4.921875 C 9.84375 5.367188 10.890625 5.59375 12.203125 5.59375 C 14.328125 5.59375 16.03125 5.320312 17.3125 4.78125 C 18.601562 4.25 19.25 3.566406 19.25 2.734375 C 19.25 2.054688 18.859375 1.578125 18.078125 1.296875 C 17.296875 1.015625 16.175781 0.875 14.71875 0.875 L 11.265625 0.875 C 10.328125 0.875 9.53125 1.09375 8.875 1.53125 C 8.21875 1.976562 7.890625 2.523438 7.890625 3.171875 Z M 10.65625 -17.171875 C 10.65625 -14.554688 11.566406 -13.25 13.390625 -13.25 C 14.234375 -13.25 14.882812 -13.570312 15.34375 -14.21875 C 15.800781 -14.863281 16.03125 -15.835938 16.03125 -17.140625 C 16.03125 -19.785156 15.148438 -21.109375 13.390625 -21.109375 C 11.566406 -21.109375 10.65625 -19.796875 10.65625 -17.171875 Z M 10.65625 -17.171875 "/></g></g></g></svg>